<svg xmlns="http://www.w3.org/2000/svg" id="Layer_2" data-name="Layer 2" viewBox="0 0 291.97 58.34">
  <defs>
    <style>
      .cls-1 {
        fill-rule: evenodd;
      }

      .cls-1, .cls-2 {
        fill: #fff;
        stroke-width: 0px;
      }
    </style>
  </defs>
  <g id="Layer_1-2" data-name="Layer 1">
    <g>
      <g>
        <path class="cls-1" d="m12.46,25.2c.99,7,7.01,12.39,14.29,12.39s13.3-5.39,14.29-12.39c-3.73,3.52-8.76,5.68-14.29,5.68s-10.56-2.16-14.29-5.68Z"/>
        <path class="cls-1" d="m15.63,44.14c-4.92-3.15-8.41-8.32-9.3-14.35,0-.02,0-.03-.01-.05-.39-.78-2.85-6.3.91-16.37,1.26-3.39,3.22-6.3,5.31-8.7.19-.22-.08-.53-.33-.37C4.86,9.06,0,17.34,0,26.75c0,2.67.4,5.25,1.13,7.68.14.45.38.87.71,1.2,2.01,2.05,4.97,4.75,8.4,6.79,1.65.98,3.44,1.68,5.19,2.17.28.08.44-.3.19-.45Z"/>
        <path class="cls-1" d="m6.21,21.72c-.03.31.42.37.5.07,2.22-9.01,10.35-15.69,20.04-15.69.75,0,1.49.04,2.22.12.02,0,.04,0,.06,0,1.65-.39,8.87-1.53,19.15,5.36.24.16.51-.12.34-.35C43.67,4.43,35.73,0,26.75,0c-3.45,0-6.75.66-9.78,1.85-.35.14-.67.34-.95.59-2.94,2.72-6.14,6.52-7.91,11.26-1.17,3.13-1.71,5.81-1.9,8.01Z"/>
        <path class="cls-1" d="m41.67,43.94c1.93-2.86,3.09-5.3,3.76-7.31.1-.29-.31-.47-.46-.19-3.47,6.52-10.33,10.95-18.23,10.95-1.94,0-3.82-.27-5.6-.78-.01,0-.02,0-.03,0-3.13-.3-7.56-1.12-11.35-3.38-2.54-1.51-4.82-3.36-6.67-5.07-.2-.18-.51.05-.39.29,4.34,8.9,13.48,15.04,24.05,15.04,1.42,0,2.82-.12,4.18-.33.27-.04.53-.12.79-.24,2.66-1.23,6.43-3.76,9.95-8.98Z"/>
        <path class="cls-1" d="m49.91,13.98c-6.49-4.9-11.91-6.53-15.6-6.96-.29-.03-.38.37-.11.48,7.72,2.99,13.2,10.48,13.2,19.26,0,1.15-.1,2.27-.28,3.37,0,.02,0,.05,0,.07.36,1.77.56,6.56-4.66,14.29-2.03,3-4.13,5.15-6.07,6.69-.23.18-.02.54.25.44,9.88-3.93,16.86-13.58,16.86-24.85,0-4.19-.97-8.16-2.69-11.69-.21-.42-.52-.79-.89-1.08Z"/>
      </g>
      <g>
        <path class="cls-2" d="m67.24,27.1c0-8.09,5.03-13.62,13.52-13.62s13.51,5.53,13.51,13.62-5.03,13.62-13.51,13.62-13.52-5.56-13.52-13.62Zm21.43,0c0-5.28-2.71-8.74-7.92-8.74s-7.92,3.46-7.92,8.74,2.71,8.74,7.92,8.74,7.92-3.46,7.92-8.74Z"/>
        <path class="cls-2" d="m98.44,20.22h2.91c.37,0,.69.28.74.65l.37,2.7c1.25-2.6,3.35-3.82,5.71-3.82.4,0,.94.05,1.43.17.34.08.57.39.57.73v3.5c0,.47-.43.84-.89.74-.71-.15-1.34-.19-1.75-.19-2.96,0-4.67,2-4.67,5.67v9.16c0,.41-.34.75-.75.75h-3.67c-.41,0-.75-.34-.75-.75v-18.58c0-.41.34-.75.75-.75Z"/>
        <path class="cls-2" d="m135.39,36.15v2.94c0,.13-.05.26-.14.36-.77.74-2.3,1.28-3.64,1.28-2.03,0-3.99-.96-4.71-3.32-1.11,1.82-3.03,3.32-6.21,3.32-5.74,0-8.99-3.82-8.99-10.34s4.1-10.59,10.06-10.59c2.28,0,4.28.57,5.96,1.53l.37-.81c.08-.18.26-.29.46-.29h2.71c.28,0,.5.22.5.5v13.41c0,1.53.64,1.96,1.64,1.96.42,0,.82-.11,1.26-.38.32-.2.74.06.74.44Zm-8.81-5.2v-5.67c-1.21-.68-2.64-1-4.28-1-3.57,0-5.17,2.46-5.17,6.1s1.53,5.74,4.81,5.74,4.64-2.35,4.64-5.17Z"/>
        <path class="cls-2" d="m137.88,35.2V15.09c0-.23.16-.43.39-.49l4.17-.98c.31-.07.61.16.61.49v20.02c0,1.53.61,1.96,1.6,1.96.44,0,.81-.1,1.24-.36.33-.2.76.03.76.42v2.94c0,.13-.05.27-.14.36-.77.74-2.27,1.28-3.64,1.28-2.6,0-4.99-1.57-4.99-5.53Z"/>
        <path class="cls-2" d="m156.03,27.1c0-8.13,4.85-13.62,13.41-13.62,3.28,0,6.36.93,8.58,2.48.21.15.27.44.14.66l-1.36,2.39c-.14.25-.46.32-.71.16-2.16-1.39-4.48-2.02-6.65-2.02-6.1,0-9.45,4.1-9.45,9.95s3.35,9.95,9.45,9.95c2.61,0,5.21-1.03,7.23-2.89.22-.2.56-.18.74.06l1.71,2.26c.16.21.13.5-.05.67-2.44,2.24-5.77,3.57-9.62,3.57-8.45,0-13.41-5.53-13.41-13.62Z"/>
        <path class="cls-2" d="m182,30.42c0-5.87,3.43-10.13,9.4-10.3,5.31-.15,9.64,4.27,9.77,9.59.02.87.02,1.32-.06,1.89-.03.25-.25.43-.5.43h-14.69c.32,3.42,2.89,5.35,6.56,5.35,2.24,0,4.06-.43,5.99-1.48.25-.14.57-.05.7.22l1,2.1c.11.23.03.52-.2.65-2.13,1.23-4.61,1.87-7.7,1.87-6.7,0-10.27-4.21-10.27-10.31Zm15.4-1.43c-.21-3.42-2.07-5.53-5.63-5.53s-5.74,2.14-5.74,5.53h11.38Z"/>
        <path class="cls-2" d="m205.78,20.54h2.25c.26,0,.48.2.5.46l.25,3.18c1.46-2.78,3.85-4.1,7.1-4.1,4.74,0,7.81,2.96,7.81,8.88v10.84c0,.28-.22.5-.5.5h-2.64c-.28,0-.5-.22-.5-.5v-10.84c0-3.57-1.89-5.28-5.14-5.28-3.89,0-5.99,2.42-5.99,6.67v9.45c0,.28-.22.5-.5.5h-2.64c-.28,0-.5-.22-.5-.5v-18.75c0-.28.22-.5.5-.5Z"/>
        <path class="cls-2" d="m229.67,33.56v-9.59h-2.5c-.28,0-.5-.22-.5-.5v-1.63c0-.22.14-.41.35-.48l2.64-.82.81-3.92c.05-.23.25-.4.49-.4h1.87c.28,0,.5.22.5.5v3.82h6.24c.28,0,.5.22.5.5v2.42c0,.28-.22.5-.5.5h-6.24v9.56c0,2.64,1,3.71,3.49,3.71.85,0,1.55-.08,2.24-.3.32-.1.64.14.64.47v2.26c0,.19-.1.37-.27.45-.84.38-2.21.61-3.33.61-3.85,0-6.45-2.1-6.45-7.17Z"/>
        <path class="cls-2" d="m244.69,33.56v-9.59h-2.5c-.28,0-.5-.22-.5-.5v-1.63c0-.22.14-.41.35-.48l2.64-.82.81-3.92c.05-.23.25-.4.49-.4h1.87c.28,0,.5.22.5.5v3.82h6.24c.28,0,.5.22.5.5v2.42c0,.28-.22.5-.5.5h-6.24v9.56c0,2.64,1,3.71,3.49,3.71.85,0,1.55-.08,2.24-.3.32-.1.64.14.64.47v2.26c0,.19-.1.37-.27.45-.84.38-2.21.61-3.33.61-3.85,0-6.45-2.1-6.45-7.17Z"/>
        <path class="cls-2" d="m257.17,30.42c0-5.87,3.43-10.13,9.4-10.3,5.31-.15,9.64,4.27,9.77,9.59.02.87.02,1.32-.06,1.89-.03.25-.25.43-.5.43h-14.69c.32,3.42,2.89,5.35,6.56,5.35,2.24,0,4.06-.43,5.99-1.48.25-.14.57-.05.7.22l1,2.1c.11.23.03.52-.2.65-2.13,1.23-4.61,1.87-7.7,1.87-6.7,0-10.27-4.21-10.27-10.31Zm15.4-1.43c-.21-3.42-2.07-5.53-5.63-5.53s-5.74,2.14-5.74,5.53h11.38Z"/>
        <path class="cls-2" d="m280.96,20.54h2.18c.26,0,.48.2.5.46l.25,3.18c1.46-3.07,3.71-4.1,6.35-4.1.33,0,.88.06,1.36.18.23.05.39.26.39.49v2.84c0,.31-.29.55-.6.49-.78-.15-1.49-.18-1.83-.18-3.46,0-5.46,2.64-5.46,6.56v9.34c0,.28-.22.5-.5.5h-2.64c-.28,0-.5-.22-.5-.5v-18.75c0-.28.22-.5.5-.5Z"/>
        <g>
          <path class="cls-2" d="m151.13,57.45c-.61-.59-.91-1.34-.91-2.26s.31-1.7.93-2.29c.62-.61,1.37-.91,2.25-.91.56,0,1.06.12,1.54.37.47.24.84.56,1.11.96l-.68.62c-.51-.67-1.15-1.01-1.94-1.01-.62,0-1.15.22-1.58.65-.42.43-.64.97-.64,1.62s.21,1.18.63,1.6c.42.42.95.62,1.58.62.81,0,1.47-.33,1.98-1l.68.6c-.57.79-1.57,1.32-2.7,1.32-.89,0-1.64-.29-2.25-.88Z"/>
          <path class="cls-2" d="m157.86,58.24v-6.15h.96v5.22h3.24v.92h-4.2Z"/>
          <path class="cls-2" d="m163.76,52.1h.96v6.15h-.96v-6.15Zm.04-.47l.51-1.44h1.1l-.79,1.44h-.82Z"/>
          <path class="cls-2" d="m171.11,52.1h.95v6.15h-.57l-3.52-4.17v4.17h-.95v-6.15h.5l3.58,4.2v-4.2Z"/>
          <path class="cls-2" d="m174.39,52.1h.96v6.15h-.96v-6.15Z"/>
          <path class="cls-2" d="m178.21,57.45c-.61-.59-.91-1.34-.91-2.26s.31-1.7.93-2.29c.62-.61,1.37-.91,2.25-.91.56,0,1.06.12,1.54.37.47.24.84.56,1.11.96l-.68.62c-.51-.67-1.15-1.01-1.94-1.01-.62,0-1.15.22-1.58.65-.42.43-.64.97-.64,1.62s.21,1.18.63,1.6c.42.42.95.62,1.58.62.81,0,1.47-.33,1.98-1l.68.6c-.57.79-1.57,1.32-2.7,1.32-.89,0-1.64-.29-2.25-.88Z"/>
          <path class="cls-2" d="m188.62,58.24l-.58-1.51h-2.26l-.58,1.51h-1.03l2.45-6.15h.62l2.42,6.15h-1.03Zm-1.71-4.62l-.83,2.23h1.66l-.83-2.23Z"/>
          <path class="cls-2" d="m190.61,57.12l.65-.62c.34.62.91.94,1.52.94s1.05-.37,1.05-.84c0-.31-.2-.57-.61-.79-.1-.05-.31-.14-.62-.27-.31-.14-.55-.26-.71-.35-.62-.37-.93-.87-.93-1.49,0-.48.17-.89.53-1.21s.82-.49,1.4-.49c.77,0,1.4.29,1.87.88l-.59.66c-.34-.42-.76-.63-1.27-.63s-.92.29-.92.75c0,.29.17.54.52.73.11.06.33.17.69.34.36.16.61.28.76.37.62.34.94.83.94,1.46,0,.52-.2.96-.59,1.3-.39.33-.9.5-1.51.5-.9,0-1.73-.43-2.17-1.22Z"/>
          <path class="cls-2" d="m200.21,57.43c-.61-.61-.91-1.36-.91-2.24s.31-1.65.93-2.27c.62-.62,1.37-.94,2.25-.94s1.64.31,2.26.93c.62.62.93,1.37.93,2.25s-.31,1.63-.93,2.25-1.38.92-2.29.92-1.65-.3-2.25-.91Zm3.83-.67c.42-.42.64-.96.64-1.59s-.22-1.18-.64-1.6-.94-.64-1.55-.64-1.13.22-1.56.65c-.42.42-.63.96-.63,1.6s.21,1.16.62,1.58c.42.42.94.64,1.56.64s1.13-.21,1.55-.63Z"/>
          <path class="cls-2" d="m207.62,58.24v-6.15h2.32c.89,0,1.59.27,2.1.83.52.56.77,1.31.77,2.25s-.27,1.69-.79,2.24c-.52.55-1.24.82-2.15.82h-2.25Zm.96-.91h1.33c.6,0,1.06-.2,1.4-.61.34-.41.51-.93.51-1.56s-.17-1.13-.51-1.54c-.33-.41-.8-.61-1.39-.61h-1.34v4.32Z"/>
          <path class="cls-2" d="m215.31,57.43c-.61-.61-.91-1.36-.91-2.24s.31-1.65.93-2.27c.62-.62,1.37-.94,2.25-.94s1.64.31,2.26.93c.62.62.93,1.37.93,2.25s-.31,1.63-.93,2.25-1.38.92-2.29.92-1.65-.3-2.25-.91Zm3.83-.67c.42-.42.64-.96.64-1.59s-.22-1.18-.64-1.6-.94-.64-1.55-.64-1.13.22-1.56.65c-.42.42-.63.96-.63,1.6s.21,1.16.62,1.58c.42.42.94.64,1.56.64s1.13-.21,1.55-.63Z"/>
          <path class="cls-2" d="m226.81,52.1h.95v6.15h-.57l-3.52-4.17v4.17h-.95v-6.15h.5l3.58,4.2v-4.2Z"/>
          <path class="cls-2" d="m231.25,53.03h-1.8v-.93h4.57v.93h-1.8v5.21h-.97v-5.21Z"/>
          <path class="cls-2" d="m235.97,57.43c-.61-.61-.91-1.36-.91-2.24s.31-1.65.93-2.27c.62-.62,1.37-.94,2.25-.94s1.64.31,2.26.93c.62.62.93,1.37.93,2.25s-.31,1.63-.93,2.25-1.38.92-2.29.92-1.65-.3-2.25-.91Zm3.83-.67c.42-.42.64-.96.64-1.59s-.22-1.18-.64-1.6-.94-.64-1.55-.64-1.13.22-1.56.65c-.42.42-.63.96-.63,1.6s.21,1.16.62,1.58c.42.42.94.64,1.56.64s1.13-.21,1.55-.63Z"/>
          <path class="cls-2" d="m243.38,58.24v-6.15h.96v5.22h3.24v.92h-4.2Z"/>
          <path class="cls-2" d="m249.47,57.43c-.61-.61-.91-1.36-.91-2.24s.31-1.65.93-2.27c.62-.62,1.37-.94,2.25-.94s1.64.31,2.26.93c.62.62.93,1.37.93,2.25s-.31,1.63-.93,2.25-1.38.92-2.29.92-1.65-.3-2.25-.91Zm3.83-.67c.42-.42.64-.96.64-1.59s-.22-1.18-.64-1.6-.94-.64-1.55-.64-1.13.22-1.56.65c-.42.42-.63.96-.63,1.6s.21,1.16.62,1.58c.42.42.94.64,1.56.64s1.13-.21,1.55-.63Zm-1.98-5.12l.51-1.44h1.1l-.79,1.44h-.82Z"/>
          <path class="cls-2" d="m257.4,57.44c-.6-.6-.9-1.36-.9-2.27s.31-1.68.93-2.28c.62-.61,1.38-.91,2.28-.91,1.02,0,1.98.43,2.54,1.09l-.66.65c-.49-.54-1.11-.81-1.87-.81-.64,0-1.17.22-1.6.64-.42.42-.64.96-.64,1.61s.21,1.18.63,1.6c.42.42.95.63,1.58.63.71,0,1.41-.31,1.87-.8v-1.1h-1.94v-.87h2.83v2.41c-.77.85-1.7,1.27-2.79,1.27-.92,0-1.67-.3-2.27-.89Z"/>
          <path class="cls-2" d="m264.46,52.1h.96v6.15h-.96v-6.15Z"/>
          <path class="cls-2" d="m268.28,57.45c-.61-.59-.91-1.34-.91-2.26s.31-1.7.93-2.29c.62-.61,1.37-.91,2.25-.91.56,0,1.06.12,1.54.37.47.24.84.56,1.11.96l-.68.62c-.51-.67-1.15-1.01-1.94-1.01-.62,0-1.15.22-1.58.65-.42.43-.64.97-.64,1.62s.21,1.18.63,1.6c.42.42.95.62,1.58.62.81,0,1.47-.33,1.98-1l.68.6c-.57.79-1.57,1.32-2.7,1.32-.89,0-1.64-.29-2.25-.88Z"/>
          <path class="cls-2" d="m278.7,58.24l-.58-1.51h-2.26l-.58,1.51h-1.03l2.45-6.15h.62l2.42,6.15h-1.03Zm-1.71-4.62l-.83,2.23h1.66l-.83-2.23Z"/>
          <path class="cls-2" d="m280.69,57.12l.65-.62c.34.62.91.94,1.52.94s1.05-.37,1.05-.84c0-.31-.2-.57-.61-.79-.1-.05-.31-.14-.62-.27-.31-.14-.55-.26-.71-.35-.62-.37-.93-.87-.93-1.49,0-.48.17-.89.53-1.21s.82-.49,1.4-.49c.77,0,1.4.29,1.87.88l-.59.66c-.34-.42-.76-.63-1.27-.63s-.92.29-.92.75c0,.29.17.54.52.73.11.06.33.17.69.34.36.16.61.28.76.37.62.34.94.83.94,1.46,0,.52-.2.96-.59,1.3-.39.33-.9.5-1.51.5-.9,0-1.73-.43-2.17-1.22Z"/>
        </g>
      </g>
    </g>
  </g>
</svg>
